<svg id="Layer_1" data-name="Layer 1" xmlns="http://www.w3.org/2000/svg" viewBox="0 0 400 400">
  <defs>
    <style>
      .cls-1{fill:#3b476b;}.cls-2{fill:none;}.cls-3{fill:#ed4c51;}.cls-4{fill:#48a7cc;}
    </style>
  </defs>
  <title>Admiral_Logo_Horizontal_Color</title>
  <g id="V2">
    <path class="cls-2" d="M150.93,409.07l-28.63-6A201.18,201.18,0,0,0,157,437.69Z" transform="translate(-80 -80)"/>
    <polygon class="cls-1" points="205.22 296.97 271.77 128.23 103.03 194.78 187.4 212.6 205.22 296.97"/>
    <path class="cls-3" d="M103.88,248.4l166.38-72.26-117-50.83a201.22,201.22,0,0,0-21.82,20.84l19.53,30Z" transform="translate(-80 -80)"/>
    <path class="cls-3" d="M311.6,456.12l72.26-47.06,30,19.53a201.23,201.23,0,0,0,20.84-21.82l-50.83-117Z" transform="translate(-80 -80)"/>
    <path class="cls-3" d="M383.86,176.14l17.82,84.37,39.18-99.35a201.14,201.14,0,0,0-42-42l-99.35,39.18Z" transform="translate(-80 -80)"/>
    <path class="cls-4" d="M327.06,85.58A201.12,201.12,0,0,0,253,81.82l-32.63,50.11Z" transform="translate(-80 -80)"/>
    <path class="cls-4" d="M478.18,307a201.12,201.12,0,0,0-3.76-74.09L428.07,339.66Z" transform="translate(-80 -80)"/>
    <path class="cls-3" d="M157,437.69a200.31,200.31,0,0,0,26.79,17.67l51.53-130.67L104.64,376.23A200.29,200.29,0,0,0,122.31,403l28.63,6Z" transform="translate(-80 -80)"/>
    <path class="cls-4" d="M80.91,260.95C80.32,267.22,80,273.57,80,280a200.71,200.71,0,0,0,4.58,42.66l69.21-30.06Z" transform="translate(-80 -80)"/>
    <path class="cls-4" d="M237.34,475.42A200.71,200.71,0,0,0,280,480c6.43,0,12.78-.32,19.05-0.91L267.4,406.21Z" transform="translate(-80 -80)"/>
  </g>
</svg>
