<svg version="1.1" id="Layer_1" xmlns="http://www.w3.org/2000/svg" xmlns:xlink="http://www.w3.org/1999/xlink" x="0px" y="0px"
	 width="100%" viewBox="0 0 225 225" enable-background="new 0 0 225 225" xml:space="preserve">
  
<rect width="225" height="225" rx="100" fill="#01B3E6" opacity="1.000000" stroke="none" 
	d="
M110.000000,226.000000 
	C73.333336,226.000000 37.166672,226.000000 1.000005,226.000000 
	C1.000003,151.000000 1.000003,76.000015 1.000002,1.000015 
	C75.999992,1.000010 150.999985,1.000010 225.999969,1.000005 
	C225.999985,75.999985 225.999985,150.999969 226.000000,225.999969 
	C187.500000,226.000000 149.000000,226.000000 110.000000,226.000000 
M77.364975,183.077072 
	C79.349045,183.077072 81.333115,183.077072 83.727158,183.077072 
	C97.090324,138.354126 110.407997,93.783447 123.924232,48.548244 
	C119.006554,48.548244 115.173233,48.825268 111.398811,48.472309 
	C107.422729,48.100491 105.667358,49.397324 104.491241,53.398327 
	C94.842804,86.221184 84.917763,118.962692 75.088707,151.732498 
	C72.006653,162.007980 68.961296,172.294479 65.749893,183.077072 
	C69.787659,183.077072 73.099556,183.077072 77.364975,183.077072 
M151.592026,78.208244 
	C154.433395,68.535271 157.274750,58.862297 160.233246,48.790512 
	C153.952133,48.790512 148.346909,48.790512 142.278305,48.790512 
	C128.975708,93.332718 115.655907,137.932556 102.215378,182.936646 
	C108.701622,182.936646 114.174568,182.936646 120.105721,182.936646 
	C130.500244,148.293243 140.902435,113.624275 151.592026,78.208244 
z"/>
<path fill="#FAFDFE" opacity="1.000000" stroke="none" 
	d="
M76.888214,183.077072 
	C73.099556,183.077072 69.787659,183.077072 65.749893,183.077072 
	C68.961296,172.294479 72.006653,162.007980 75.088707,151.732498 
	C84.917763,118.962692 94.842804,86.221184 104.491241,53.398327 
	C105.667358,49.397324 107.422729,48.100491 111.398811,48.472309 
	C115.173233,48.825268 119.006554,48.548244 123.924232,48.548244 
	C110.407997,93.783447 97.090324,138.354126 83.727158,183.077072 
	C81.333115,183.077072 79.349045,183.077072 76.888214,183.077072 
z"/>
<path fill="#FAFDFE" opacity="1.000000" stroke="none" 
	d="
M151.448334,78.581772 
	C140.902435,113.624275 130.500244,148.293243 120.105721,182.936646 
	C114.174568,182.936646 108.701622,182.936646 102.215378,182.936646 
	C115.655907,137.932556 128.975708,93.332718 142.278305,48.790512 
	C148.346909,48.790512 153.952133,48.790512 160.233246,48.790512 
	C157.274750,58.862297 154.433395,68.535271 151.448334,78.581772 
z"/>
</svg>