<svg version="1.1" id="Layer_1" xmlns="http://www.w3.org/2000/svg" viewBox="0 0 530 530" enable-background="new 0 0 530 530" aria-hidden="true">
  <path fill="#4E88C5" opacity="1.000000" stroke="none" d="
M294.991302,433.483093 
	C293.584869,433.641510 292.178436,433.799927 290.062500,433.638123 
	C286.567200,433.696198 283.781403,434.074432 280.995605,434.452698 
	C277.959167,434.536102 274.922760,434.619476 271.309601,434.263397 
	C268.181061,433.816223 265.629242,433.808502 263.077423,433.800781 
	C261.649109,433.754700 260.220795,433.708649 258.302673,433.238342 
	C256.894989,432.823486 255.977097,432.832886 255.059189,432.842285 
	C254.286270,432.821808 253.513367,432.801300 252.299164,432.371643 
	C250.928360,431.912842 249.998825,431.863220 249.069290,431.813629 
	C248.279907,431.756165 247.490524,431.698730 246.278244,431.233032 
	C245.261276,430.814911 244.667191,430.805023 244.073120,430.795105 
	C243.597183,430.767273 243.121262,430.739410 242.262665,430.313995 
	C241.276947,429.878510 240.673889,429.840637 240.070816,429.802734 
	C239.592804,429.772247 239.114777,429.741760 238.215256,429.263855 
	C236.218719,428.481293 234.643707,428.146149 233.068680,427.811035 
	C230.935425,427.173920 228.802170,426.536774 226.229309,425.404633 
	C224.984970,424.680969 224.180237,424.452301 223.375519,424.223633 
	C222.764847,424.113922 222.154160,424.004181 221.170074,423.412720 
	C219.993591,422.691620 219.190536,422.452240 218.387482,422.212830 
	C204.822479,417.463257 193.089020,409.571594 182.306625,400.345306 
	C150.187149,372.861511 132.093460,337.953033 127.854790,295.876495 
	C127.672195,294.063995 127.364555,292.264069 127.035507,289.881439 
	C120.284821,289.881439 113.656769,289.772736 107.034561,289.922211 
	C103.053307,290.012085 99.951180,289.020966 99.433624,284.602844 
	C99.015656,281.034790 101.975220,278.954102 107.118393,278.928192 
	C113.593513,278.895630 120.068916,278.920349 127.028305,278.920349 
	C131.011963,228.537308 152.685425,188.202271 194.266525,159.498291 
	C221.779068,140.506058 252.672684,132.502197 286.000092,134.064270 
	C352.926636,137.201172 424.125763,191.176712 428.602386,278.947388 
	C434.187439,278.947388 439.813171,279.035553 445.434631,278.917908 
	C449.513855,278.832520 452.684143,280.197113 452.562927,284.606781 
	C452.450317,288.704315 449.300903,289.950470 445.481812,289.886841 
	C439.855255,289.793091 434.226013,289.862671 429.360596,289.862671 
	C426.833527,302.651886 425.377319,315.111786 421.851105,326.955414 
	C409.011627,370.080048 381.463165,400.892395 341.196594,420.563934 
	C340.605560,420.852722 339.930603,420.969696 338.597168,421.141113 
	C337.263336,421.597412 336.627136,422.079498 335.990906,422.561584 
	C335.190704,422.969025 334.390472,423.376434 333.089325,423.591553 
	C332.054657,423.788239 331.520935,424.177246 330.987183,424.566223 
	C329.435303,425.138000 327.883423,425.709747 325.646790,426.201965 
	C324.306152,426.534027 323.650238,426.945648 322.994293,427.357239 
	C321.556000,427.844330 320.117706,428.331451 318.145325,428.616516 
	C317.069519,428.764832 316.527740,429.115204 315.985962,429.465576 
	C315.539307,429.608368 315.092590,429.751099 314.146759,429.673981 
	C313.094147,429.767822 312.540710,430.081482 311.987244,430.395172 
	C311.536530,430.544342 311.085785,430.693512 310.133606,430.631287 
	C309.084747,430.701569 308.537415,430.983246 307.990082,431.264923 
	C307.235321,431.481689 306.480560,431.698486 305.145294,431.655334 
	C303.706451,431.737274 302.848175,432.079163 301.989899,432.421051 
	C301.227173,432.582397 300.464478,432.743744 299.094910,432.630402 
	C297.322449,432.731476 296.156891,433.107300 294.991302,433.483093 
M286.106506,145.033356 
	C280.051331,144.972580 273.996155,144.911789 267.434113,144.355713 
	C265.620117,144.752380 263.806152,145.149048 261.209869,145.786774 
	C260.122833,145.812790 259.035767,145.838791 257.584259,145.419281 
	C256.719147,145.764099 255.854034,146.108917 254.265060,146.748184 
	C253.489227,146.774811 252.713394,146.801453 251.658920,146.452423 
	C251.102783,146.723083 250.546631,146.993759 249.262802,147.665787 
	C174.002060,163.975128 138.676636,232.517471 139.262482,278.587097 
	C231.741394,278.587097 324.223267,278.587097 416.936859,278.587097 
	C416.936859,276.421661 417.079193,274.598297 416.915253,272.802948 
	C414.884705,250.567657 408.321411,229.790039 396.393982,210.864914 
	C377.488068,180.867157 350.605347,161.257431 316.906525,150.038513 
	C316.292999,149.963440 315.679443,149.888351 314.286224,149.844284 
	C312.528503,149.360641 310.770782,148.876984 308.882416,147.932266 
	C308.274902,147.898331 307.667419,147.864395 306.358429,147.893082 
	C305.909424,147.767792 305.460449,147.642517 304.859375,146.965988 
	C303.928101,146.917236 302.996826,146.868484 301.291138,146.924225 
	C300.531189,146.776169 299.771240,146.628113 298.851227,145.935837 
	C297.921051,145.902145 296.990906,145.868454 295.213531,145.945374 
	C293.811493,145.778183 292.409454,145.610992 290.800018,144.870667 
	C289.546509,144.879242 288.293030,144.887817 286.106506,145.033356 
M403.503479,344.949493 
	C411.528534,327.615204 416.596466,309.581024 417.033356,290.087830 
	C324.026093,290.087830 231.616638,290.087830 137.996811,290.087830 
	C138.595627,294.251709 139.191971,298.017365 139.671509,301.797821 
	C141.918945,319.516144 147.679398,336.047638 156.097672,351.759735 
	C185.177856,406.035919 249.498871,434.873474 309.350281,420.208435 
	C352.021515,409.752930 383.192505,384.695984 403.503479,344.949493 
z"/>
</svg>
